<svg width="19" height="19" viewBox="0 0 19 19" fill="none" xmlns="http://www.w3.org/2000/svg">
<path d="M12.589 0H5.72228C2.56251 0 0 2.64281 0 5.90159V12.9835C0 16.2423 2.56251 18.8851 5.72228 18.8851H12.589C15.7488 18.8851 18.3113 16.2423 18.3113 12.9835V5.90159C18.3113 2.64281 15.7488 0 12.589 0ZM16.5946 12.9835C16.5946 15.2615 14.7978 17.1146 12.589 17.1146H5.72228C3.51348 17.1146 1.71668 15.2615 1.71668 12.9835V5.90159C1.71668 3.62358 3.51348 1.77048 5.72228 1.77048H12.589C14.7978 1.77048 16.5946 3.62358 16.5946 5.90159V12.9835Z" fill="black"/>
<path d="M9.15571 4.72125C6.62753 4.72125 4.57788 6.83513 4.57788 9.44253C4.57788 12.0499 6.62753 14.1638 9.15571 14.1638C11.6839 14.1638 13.7335 12.0499 13.7335 9.44253C13.7335 6.83513 11.6839 4.72125 9.15571 4.72125ZM9.15571 12.3933C7.5785 12.3933 6.29457 11.0692 6.29457 9.44253C6.29457 7.81479 7.5785 6.49173 9.15571 6.49173C10.7329 6.49173 12.0168 7.81479 12.0168 9.44253C12.0168 11.0692 10.7329 12.3933 9.15571 12.3933Z" fill="black"/>
<path d="M14.1914 4.7213C14.4442 4.7213 14.6492 4.50992 14.6492 4.24917C14.6492 3.98842 14.4442 3.77704 14.1914 3.77704C13.9386 3.77704 13.7336 3.98842 13.7336 4.24917C13.7336 4.50992 13.9386 4.7213 14.1914 4.7213Z" fill="black"/>
</svg>
