<svg width="28" height="28" viewBox="0 0 28 28" fill="none" xmlns="http://www.w3.org/2000/svg">
<circle cx="14" cy="14" r="13" stroke="white" stroke-width="2"/>
<path d="M17.7037 15.9649C18.0006 16.0745 19.5948 16.8664 19.9188 17.0302C20.2431 17.194 20.4593 17.2758 20.5408 17.4123C20.6219 17.5488 20.6219 18.2042 20.352 18.9689C20.0814 19.7335 18.7865 20.4312 18.1636 20.5255C17.605 20.6098 16.8986 20.645 16.1217 20.3956C15.6508 20.2447 15.0471 20.0433 14.2735 19.7058C11.0215 18.2878 8.89777 14.9811 8.7356 14.7627L8.73329 14.7596C8.56273 14.53 7.41162 12.9804 7.41162 11.3762C7.41162 9.76464 8.24909 8.97311 8.54599 8.64517C8.84289 8.31723 9.19426 8.23535 9.41049 8.23535C9.62672 8.23535 9.84294 8.23742 10.0317 8.24693C10.2308 8.25686 10.4978 8.17084 10.7611 8.80894C11.0314 9.4644 11.6796 11.076 11.7603 11.2397C11.8414 11.4035 11.8955 11.595 11.7873 11.8133C11.6792 12.0317 11.3279 12.4932 10.9769 12.9332C10.8332 13.1135 10.646 13.2736 10.8348 13.6015C11.024 13.9294 11.6747 15.0013 12.6383 15.8694C13.8763 16.9847 14.921 17.3304 15.2453 17.4942C15.5697 17.6584 15.7585 17.6307 15.9477 17.4123C16.1369 17.194 16.7581 16.4562 16.9743 16.1287C17.1901 15.8011 17.4068 15.8557 17.7037 15.9649Z" fill="white"/>
</svg>
