<svg width="34" height="34" viewBox="0 0 34 34" fill="none" xmlns="http://www.w3.org/2000/svg">
<circle cx="17" cy="17" r="17" fill="black"/>
<path d="M21.4975 19.3859C21.858 19.519 23.7939 20.4806 24.1873 20.6794C24.5811 20.8783 24.8437 20.9777 24.9426 21.1434C25.0411 21.3092 25.0411 22.1051 24.7134 23.0336C24.3847 23.9621 22.8123 24.8092 22.0559 24.9237C21.3777 25.0261 20.5199 25.0688 19.5765 24.766C19.0047 24.5827 18.2717 24.3382 17.3323 23.9284C13.3835 22.2065 10.8046 18.1912 10.6077 17.9261L10.6049 17.9223C10.3978 17.6435 9 15.7618 9 13.8139C9 11.857 10.0169 10.8959 10.3775 10.4976C10.738 10.0994 11.1646 10 11.4272 10C11.6898 10 11.9523 10.0025 12.1816 10.0141C12.4232 10.0261 12.7475 9.92166 13.0672 10.6965C13.3954 11.4924 14.1826 13.4493 14.2806 13.6482C14.379 13.8471 14.4447 14.0796 14.3134 14.3447C14.1821 14.6098 13.7554 15.1702 13.3293 15.7045C13.1547 15.9235 12.9275 16.1178 13.1567 16.516C13.3865 16.9142 14.1766 18.2158 15.3467 19.2699C16.85 20.6242 18.1185 21.044 18.5124 21.2429C18.9062 21.4422 19.1354 21.4086 19.3652 21.1434C19.5949 20.8783 20.3493 19.9824 20.6119 19.5847C20.8739 19.187 21.137 19.2533 21.4975 19.3859Z" fill="#E5E5E5"/>
</svg>
