<svg width="67" height="13" viewBox="0 0 67 13" fill="none" xmlns="http://www.w3.org/2000/svg">
<path d="M27.7471 2.86863C26.5675 2.68096 25.5756 2.57373 24.7445 2.57373C24.1279 2.57373 23.5649 2.65416 23.0824 2.81501C22.3586 3.05629 21.8224 3.45842 21.4471 4.04821C21.0717 4.63799 20.9109 5.38864 20.9109 6.30013C20.9109 6.88992 20.9913 7.42609 21.1254 7.88184C21.3398 8.57886 21.6883 9.08823 22.2245 9.43674C22.7339 9.78525 23.4041 9.9461 24.2352 9.9461C24.7713 9.9461 25.3075 9.86568 25.7901 9.67802C25.7632 9.83887 25.7364 10.107 25.6828 10.241C25.5756 10.5091 25.3879 10.7236 25.1198 10.8576C24.8518 10.9916 24.4764 11.0721 24.0207 11.0721C23.1628 11.0721 22.3586 10.9648 21.6883 10.7236C21.6347 10.6967 21.6079 10.7236 21.5543 10.7504C21.5275 10.7772 21.5007 10.8308 21.5007 10.8576V12.3053C21.5007 12.3589 21.5275 12.4125 21.6079 12.4393C22.3049 12.6806 23.1092 12.7878 23.9939 12.7878C24.6373 12.7878 25.1735 12.7342 25.656 12.5733C26.3798 12.3589 26.9428 12.0104 27.2913 11.4742C27.6667 10.9648 27.8543 10.1874 27.8543 9.35631V3.00267C27.8543 2.92224 27.8007 2.86863 27.7471 2.86863ZM23.0824 5.38864C23.1896 5.01332 23.3773 4.77204 23.6454 4.58438C23.9135 4.39672 24.262 4.31629 24.6909 4.31629C25.1735 4.31629 25.522 4.36991 25.7901 4.45033V7.80141C25.3343 8.01588 24.8786 8.12312 24.4228 8.12312C24.1815 8.12312 23.9671 8.09631 23.7794 8.01588C23.5113 7.90865 23.3237 7.72099 23.1896 7.42609C23.0556 7.1312 22.9752 6.75588 22.9752 6.27332C22.9752 5.92481 23.002 5.62991 23.0824 5.38864Z" fill="#767676"/>
<path d="M30.6422 5.01332C30.7494 4.74523 30.8834 4.55757 31.0979 4.45033C31.3124 4.31629 31.5805 4.26267 31.9022 4.26267C32.1434 4.26267 32.3311 4.28948 32.5188 4.3431C32.76 4.42353 32.9477 4.55757 33.0549 4.77204C33.1622 4.9597 33.2426 5.20098 33.2426 5.49587H30.5349C30.5349 5.30821 30.5885 5.14736 30.6422 5.01332ZM33.9396 3.05629C33.4034 2.73458 32.7332 2.57373 31.9022 2.57373C31.3392 2.57373 30.8298 2.65416 30.4009 2.7882C29.7575 3.00267 29.2481 3.4048 28.9264 3.99459C28.6047 4.55757 28.4438 5.2814 28.4438 6.16609C28.4438 6.78268 28.5243 7.31886 28.6851 7.80141C28.9264 8.49844 29.3822 9.03461 29.9987 9.40993C30.6153 9.75844 31.4464 9.9461 32.4115 9.9461C33.323 9.9461 33.9128 9.86568 34.5562 9.73163C34.583 9.73163 34.6098 9.70482 34.6366 9.67802C34.6634 9.65121 34.6634 9.59759 34.6634 9.59759V8.20354C34.6634 8.20354 34.6635 8.14992 34.6098 8.09631C34.5562 8.04269 34.4758 8.0695 34.4758 8.0695C33.7788 8.20354 33.2158 8.25716 32.5188 8.25716C31.7949 8.25716 31.2856 8.12312 30.9371 7.90865C30.7762 7.80141 30.6422 7.66737 30.5617 7.50652C30.5081 7.37247 30.4545 7.23843 30.4545 7.05077H35.012C35.0924 7.05077 35.146 6.99715 35.146 6.94354C35.1996 6.64864 35.1996 6.35375 35.1996 6.05885C35.1996 5.49587 35.1192 5.01332 34.9852 4.58438C34.8511 3.86054 34.4758 3.37799 33.9396 3.05629Z" fill="#767676"/>
<path d="M7.88174 0.723833C7.13109 0.241278 6.13917 0 4.93279 0C4.12853 0 3.4047 0.107235 2.7881 0.321704C1.8766 0.643407 1.15277 1.20639 0.697024 2.01065C0.214469 2.7881 0 3.83363 0 5.09364C0.0536173 6.5413 0.482555 7.74769 1.17958 8.57876C1.8498 9.43664 2.7881 9.91919 3.83363 9.91919C4.26257 9.91919 4.61108 9.86557 4.90598 9.78515C5.33492 9.6511 5.603 9.43664 5.76385 9.16855C5.92471 8.90046 5.97832 8.60557 6.00513 8.36429C6.00513 8.31067 5.97832 8.25706 5.95152 8.23025C5.92471 8.20344 5.87109 8.20344 5.81747 8.20344C5.79066 8.20344 5.73705 8.23025 5.68343 8.23025C5.49577 8.25706 5.20087 8.28386 4.93279 8.28386C4.45023 8.28386 4.0481 8.20344 3.69959 8.0694C3.16342 7.85493 2.7881 7.53322 2.52001 7.02386C2.25192 6.5145 2.11788 5.84428 2.11788 5.01321C2.11788 4.47704 2.1715 3.99449 2.30554 3.59236C2.4932 3.00257 2.7881 2.54682 3.21704 2.25192C3.64597 1.95703 4.20895 1.79618 4.93279 1.79618C5.38853 1.79618 5.81747 1.8766 6.13917 1.98384C6.64854 2.1715 7.02386 2.52001 7.29195 3.00257C7.56003 3.48512 7.69408 4.15534 7.69408 4.9596C7.69408 5.92471 7.50641 6.64854 7.18471 7.1579C7.1579 7.21152 7.1579 7.26514 7.18471 7.29195C7.21152 7.34556 7.26514 7.37237 7.31875 7.37237C7.31875 7.37237 7.4528 7.37237 7.61365 7.37237C8.20344 7.37237 8.63238 7.18471 8.95408 6.94343C9.3294 6.64854 9.54387 6.2196 9.67791 5.87109C9.81196 5.49577 9.83877 5.17407 9.83877 5.01321C9.83877 4.18215 9.73153 3.4315 9.54387 2.81491C9.19536 1.93022 8.65919 1.20639 7.88174 0.723833Z" fill="#767676"/>
<path d="M20.2134 9.78506H19.007C18.6049 9.78506 18.2832 9.46335 18.2832 9.06123V2.84162C18.2832 2.7612 18.3368 2.70758 18.4172 2.70758H20.1866C20.267 2.70758 20.3207 2.7612 20.3207 2.84162V9.62421C20.3475 9.70463 20.2939 9.78506 20.2134 9.78506Z" fill="#767676"/>
<path d="M20.2135 1.9838H18.4441C18.3637 1.9838 18.3101 1.93019 18.3101 1.84976V0.428904C18.3101 0.348478 18.3637 0.294861 18.4441 0.294861H20.2135C20.2939 0.294861 20.3475 0.348478 20.3475 0.428904V1.84976C20.3475 1.93019 20.2939 1.9838 20.2135 1.9838Z" fill="#767676"/>
<path fill-rule="evenodd" clip-rule="evenodd" d="M51.6605 3.10998L50.615 7.47978L49.0869 3.1636C48.9529 2.81508 48.6312 2.57381 48.2558 2.57381H48.1754C47.8001 2.57381 47.4516 2.81508 47.3443 3.1636L45.8162 7.47978L44.7707 3.10998C44.6903 2.78827 44.3954 2.547 44.0737 2.547H43.9396H43.2694C43.189 2.547 43.1086 2.62742 43.1354 2.73466L44.8779 9.65128C44.9048 9.7049 44.9584 9.75852 45.012 9.75852H46.2988C46.3524 9.75852 46.406 9.73171 46.4328 9.67809L48.2022 5.0402L49.9716 9.67809C49.9984 9.73171 50.052 9.75852 50.1056 9.75852H51.3924C51.4461 9.75852 51.5265 9.7049 51.5265 9.65128L53.2959 2.73466C53.3227 2.65423 53.2422 2.547 53.1618 2.547H52.4916H52.3576C52.0359 2.57381 51.741 2.78827 51.6605 3.10998Z" fill="#767676"/>
<path fill-rule="evenodd" clip-rule="evenodd" d="M8.90096 11.4475H7.61415C7.61415 11.4207 7.61415 11.4207 7.61415 11.3939C7.61415 11.3403 7.61415 11.2867 7.61415 11.2599C7.61415 11.233 7.64096 11.2062 7.64096 11.2062C7.66777 11.1794 7.66777 11.1794 7.69458 11.1794C7.72138 11.1794 7.74819 11.1526 7.80181 11.1526L8.98139 10.8309C9.16905 10.7773 9.30309 10.6969 9.43714 10.6165C9.59799 10.4556 9.70522 10.2679 9.73203 10.0803C9.78565 9.89262 9.78565 9.67815 9.78565 9.46368C9.78565 9.41006 9.78565 9.35645 9.78565 9.32964C9.78565 9.16878 9.75884 9.00793 9.70522 8.87389C9.65161 8.73985 9.54437 8.6058 9.41033 8.49857H9.38352C9.22267 8.36453 9.03501 8.2841 8.84735 8.25729C8.65969 8.20367 8.44522 8.20367 8.23075 8.20367C8.0699 8.20367 7.93585 8.20367 7.80181 8.20367C7.42649 8.20367 7.10479 8.2841 6.8367 8.47176C6.70266 8.579 6.59542 8.68623 6.5418 8.84708C6.46138 9.00793 6.43457 9.16878 6.43457 9.38325C6.43457 9.46368 6.46138 9.57091 6.48819 9.62453C6.54181 9.73177 6.64904 9.839 6.75627 9.89262C6.8367 9.94624 6.94393 9.94624 7.05117 9.97304C7.10479 9.97304 7.21202 9.97304 7.21202 9.97304H7.58734V9.839C7.58734 9.81219 7.58734 9.78538 7.58734 9.75858C7.58734 9.65134 7.58734 9.54411 7.58734 9.49049C7.58734 9.41006 7.61415 9.35645 7.61415 9.32964C7.61415 9.30283 7.64096 9.27602 7.64096 9.24921C7.66777 9.2224 7.69458 9.19559 7.74819 9.19559C7.80181 9.16878 7.88224 9.16879 7.98947 9.16879C8.01628 9.16879 8.0699 9.16879 8.09671 9.16879C8.17713 9.16879 8.25756 9.16879 8.33798 9.16879C8.3916 9.16879 8.41841 9.19559 8.47203 9.19559C8.52564 9.2224 8.55245 9.24921 8.57926 9.27602C8.60607 9.32964 8.63288 9.38325 8.63288 9.5173C8.63288 9.54411 8.63288 9.54411 8.63288 9.57091C8.63288 9.65134 8.63288 9.70496 8.63288 9.75858C8.63288 9.78538 8.63288 9.81219 8.60607 9.839C8.60607 9.86581 8.57926 9.89262 8.55245 9.91943C8.52564 9.94624 8.44522 9.97304 8.36479 9.99985L7.1584 10.3752C7.02436 10.402 6.91713 10.4556 6.80989 10.536C6.67585 10.6433 6.56861 10.8041 6.515 10.965C6.46138 11.1258 6.43457 11.3135 6.43457 11.5011V12.3322C6.43457 12.4126 6.48819 12.4662 6.56861 12.4662H9.65161C9.73203 12.4662 9.78565 12.4126 9.78565 12.3322C9.78565 11.8228 9.41033 11.4475 8.90096 11.4475Z" fill="#767676"/>
<path fill-rule="evenodd" clip-rule="evenodd" d="M66.8072 4.55747C66.5927 3.88725 66.1906 3.37789 65.6544 3.05618C65.0915 2.70767 64.3944 2.54682 63.5366 2.54682C62.9736 2.54682 62.4642 2.62725 61.9549 2.81491V0.723833C61.9549 0.321704 61.6331 0 61.231 0H60.5608C60.4804 0 60.4268 0.0536172 60.4268 0.134043V5.09364V9.49025C60.4268 9.54387 60.4804 9.6243 60.534 9.6243C61.3919 9.81196 62.3302 9.91919 63.3489 9.91919C63.9387 9.91919 64.4749 9.83877 64.9306 9.67791C65.6276 9.43664 66.137 9.0077 66.4855 8.41791C66.834 7.80131 66.9949 7.05067 66.9949 6.11237C67.0217 5.52258 66.9413 5.01321 66.8072 4.55747ZM61.9549 5.09364V4.23576C62.4106 4.02129 62.92 3.91406 63.5366 3.91406C63.8851 3.91406 64.18 3.96768 64.4212 4.0481C64.7966 4.18215 65.0647 4.39661 65.2523 4.71832C65.44 5.04002 65.5472 5.46896 65.5472 6.03194C65.5472 6.46088 65.4936 6.8362 65.4132 7.1579C65.2791 7.64046 65.0378 7.98897 64.6893 8.20344C64.3408 8.44472 63.9119 8.55195 63.3221 8.55195C62.7859 8.55195 62.357 8.49833 61.9817 8.3911V5.09364H61.9549Z" fill="#767676"/>
<path fill-rule="evenodd" clip-rule="evenodd" d="M58.604 3.00267C58.0946 2.70777 57.4512 2.57373 56.7006 2.57373C56.1376 2.57373 55.6551 2.65416 55.2261 2.7882C54.5827 3.00267 54.1002 3.4048 53.7785 3.99459C53.4568 4.55757 53.2959 5.2814 53.2959 6.16609C53.2959 6.78268 53.3763 7.31886 53.5372 7.80141C53.7785 8.49844 54.2074 9.03461 54.7972 9.40993C55.387 9.75844 56.1644 9.9461 57.1027 9.9461C58.0142 9.9461 58.5504 9.86568 59.1938 9.67802C59.2474 9.65121 59.301 9.59759 59.301 9.54397V8.52525C59.301 8.47163 59.2742 8.44482 59.2474 8.41801C59.2206 8.3912 59.167 8.3912 59.1134 8.3912C58.4968 8.57886 58.041 8.65929 57.2368 8.65929C56.8346 8.65929 56.4593 8.60567 56.1644 8.52525C55.7087 8.3912 55.387 8.17673 55.1725 7.85503C54.9848 7.56013 54.8776 7.21162 54.8508 6.75588H59.6764C59.7568 6.75588 59.8104 6.70226 59.8104 6.62183C59.864 6.30013 59.864 5.97843 59.864 5.68353C59.864 5.17417 59.8104 4.71842 59.6764 4.3431C59.4619 3.75331 59.0866 3.29756 58.604 3.00267ZM54.9848 4.79885C55.1189 4.47714 55.3065 4.23587 55.6014 4.07501C55.8695 3.91416 56.2448 3.83374 56.7006 3.83374C56.9955 3.83374 57.2368 3.86054 57.4244 3.94097C57.7461 4.0482 57.9606 4.23587 58.1215 4.47714C58.2555 4.71842 58.3359 5.01332 58.3627 5.38864H54.8508C54.8508 5.17417 54.9044 4.98651 54.9848 4.79885Z" fill="#767676"/>
<path d="M42.3846 4.12871C42.2238 3.61934 41.9289 3.21721 41.4999 2.94913C41.071 2.68104 40.5348 2.547 39.8914 2.547C39.1676 2.547 38.4437 2.81508 37.854 3.29764C37.8003 3.00274 37.5323 2.70785 37.1569 2.70785H36.0042C35.9237 2.70785 35.8701 2.76147 35.8701 2.84189V9.62447C35.8701 9.7049 35.9237 9.75852 36.0042 9.75852H37.7735C37.854 9.75852 37.9076 9.7049 37.9076 9.62447V4.90616C38.4169 4.47722 38.9531 4.28956 39.4625 4.28956C39.6501 4.28956 39.811 4.31637 39.9182 4.34318C40.1059 4.39679 40.2399 4.50403 40.3472 4.66488C40.4276 4.82573 40.4812 5.0402 40.4812 5.30829V8.57894V9.03468C40.4812 9.43681 40.8029 9.75852 41.205 9.75852H41.6876C41.9289 9.75852 42.1433 9.75852 42.4114 9.75852C42.4382 9.75852 42.4918 9.73171 42.5187 9.7049C42.5455 9.67809 42.5723 9.65128 42.5723 9.59767C42.5723 8.12319 42.5723 6.75595 42.5723 5.28148C42.5455 4.87935 42.4918 4.47722 42.3846 4.12871Z" fill="#767676"/>
<path d="M17.6935 2.92219C17.7739 2.84176 17.6935 2.70772 17.5863 2.70772H15.6024C15.5488 2.70772 15.522 2.73453 15.4952 2.76133L14.0744 4.66475L12.8143 2.9758C12.6803 2.78814 12.4658 2.68091 12.2246 2.68091H12.1441H10.9377H10.5356C10.4284 2.68091 10.348 2.81495 10.4284 2.89538L12.868 6.24646L10.4016 9.54392C10.3211 9.62434 10.4016 9.75839 10.5088 9.75839H12.4926C12.5463 9.75839 12.5731 9.73158 12.5999 9.70477L14.0475 7.80136L15.3075 9.4903C15.4416 9.67796 15.6561 9.78519 15.8973 9.78519H16.2458H17.5863C17.6935 9.78519 17.7739 9.65115 17.6935 9.57073L15.2271 6.27326L17.6935 2.92219Z" fill="#767676"/>
</svg>
