<svg width="256" height="48" viewBox="0 0 256 48" fill="none" xmlns="http://www.w3.org/2000/svg">
<path d="M256 0H58.9309V47.2348H256V0Z" fill="black"/>
<path d="M74.6004 16.5134H71.7458V30.7213H74.6004V16.5134Z" fill="white"/>
<path fill-rule="evenodd" clip-rule="evenodd" d="M77.4905 16.5134H80.9951L86.435 27.1516H86.4655V16.5134H89.1879V30.7213H85.7188L80.279 20.1136H80.2434V30.7213H77.4905V16.5134Z" fill="white"/>
<path fill-rule="evenodd" clip-rule="evenodd" d="M102.683 30.5132C101.632 30.7874 100.51 30.955 99.4531 30.955C94.8615 30.955 91.6666 28.6801 91.6666 23.8866C91.6666 19.027 94.6227 16.2748 99.4531 16.2748C100.372 16.2748 101.627 16.4779 102.648 16.8841L102.445 19.2657C101.393 18.6563 100.403 18.5192 99.3871 18.5192C96.4614 18.5192 94.6278 20.7636 94.6278 23.6834C94.6278 26.5728 96.4309 28.7461 99.4531 28.7461C100.576 28.7461 101.901 28.4719 102.546 28.1368L102.683 30.5132Z" fill="white"/>
<path fill-rule="evenodd" clip-rule="evenodd" d="M111.044 16.2748C115.498 16.2748 118.013 19.3012 118.013 23.5819C118.013 27.8981 115.529 30.955 111.044 30.955C106.488 30.955 104.075 27.9286 104.075 23.5819C104.075 19.2301 106.523 16.2748 111.044 16.2748ZM111.044 28.7461C113.97 28.7461 115.021 26.1615 115.021 23.5819C115.021 21.0988 113.863 18.5192 111.044 18.5192C108.22 18.5192 107.067 21.1039 107.067 23.5819C107.067 26.1665 108.123 28.7461 111.044 28.7461Z" fill="white"/>
<path fill-rule="evenodd" clip-rule="evenodd" d="M120.359 16.5136H123.452C126.51 16.5136 130.152 16.4121 130.152 20.3881C130.152 22.0536 129.029 23.4145 127.226 23.6836V23.7192C127.973 23.7852 128.415 24.5367 128.72 25.1816L130.995 30.7216H127.836L126.104 26.3038C125.697 25.2527 125.322 24.8414 124.133 24.8414H123.214V30.7216H120.359V16.5136ZM123.214 22.5969H124.163C125.555 22.5969 127.155 22.3938 127.155 20.6267C127.155 18.9256 125.591 18.758 124.163 18.758H123.214V22.5969Z" fill="white"/>
<path fill-rule="evenodd" clip-rule="evenodd" d="M132.803 16.5134H136.404C139.498 16.5134 142.322 17.4325 142.322 20.8296C142.322 24.1251 139.909 25.3489 136.846 25.3489H135.658V30.7163H132.803V16.5134ZM135.658 23.1045H136.643C138.07 23.1045 139.36 22.6272 139.36 20.9971C139.36 19.3316 138.136 18.7527 136.643 18.7527H135.658V23.1045Z" fill="white"/>
<path fill-rule="evenodd" clip-rule="evenodd" d="M150.647 16.2748C155.101 16.2748 157.58 19.3012 157.58 23.5819C157.58 27.8981 155.132 30.955 150.647 30.955C146.091 30.955 143.678 27.9286 143.678 23.5819C143.678 19.2301 146.126 16.2748 150.647 16.2748ZM150.647 28.7461C153.537 28.7461 154.624 26.1615 154.624 23.5819C154.624 21.0988 153.466 18.5192 150.647 18.5192C147.823 18.5192 146.634 21.1039 146.634 23.5819C146.639 26.1665 147.726 28.7461 150.647 28.7461Z" fill="white"/>
<path fill-rule="evenodd" clip-rule="evenodd" d="M159.962 16.5136H163.055C166.082 16.5136 169.719 16.4121 169.719 20.3881C169.719 22.0536 168.632 23.4145 166.793 23.6836V23.7192C167.576 23.7852 168.018 24.5367 168.322 25.1816L170.598 30.7216H167.403L165.701 26.3038C165.295 25.2527 164.919 24.8414 163.731 24.8414H162.811V30.7216H159.957V16.5136H159.962ZM162.821 22.5969H163.741C165.168 22.5969 166.768 22.3938 166.768 20.6267C166.768 18.9256 165.168 18.758 163.741 18.758H162.821V22.5969Z" fill="white"/>
<path fill-rule="evenodd" clip-rule="evenodd" d="M176.723 16.5134H179.918L185.495 30.7213H182.366L181.142 27.4918H175.362L174.138 30.7213H171.182L176.723 16.5134ZM178.288 19.3671H178.252L176.18 25.2474H180.324L178.288 19.3671Z" fill="white"/>
<path fill-rule="evenodd" clip-rule="evenodd" d="M187.329 16.5134H191.24C195.593 16.5134 199.433 18.0063 199.433 23.6174C199.433 29.2589 195.593 30.7213 191.24 30.7213H187.329V16.5134ZM190.183 28.4769H191.783C194.166 28.4769 196.477 26.7098 196.477 23.6174C196.477 20.5249 194.166 18.7578 191.783 18.7578H190.183V28.4769Z" fill="white"/>
<path fill-rule="evenodd" clip-rule="evenodd" d="M208.306 16.2748C212.761 16.2748 215.275 19.3012 215.275 23.5819C215.275 27.8981 212.791 30.955 208.306 30.955C203.75 30.955 201.337 27.9286 201.337 23.5819C201.337 19.2301 203.786 16.2748 208.306 16.2748ZM208.306 28.7461C211.232 28.7461 212.283 26.1615 212.283 23.5819C212.319 21.0988 211.125 18.5192 208.306 18.5192C205.487 18.5192 204.329 21.1039 204.329 23.5819C204.329 26.1665 205.416 28.7461 208.306 28.7461Z" fill="white"/>
<path fill-rule="evenodd" clip-rule="evenodd" d="M217.621 16.5136H220.715C223.772 16.5136 227.414 16.4121 227.414 20.3881C227.414 22.0536 226.292 23.4145 224.488 23.6836V23.7192C225.235 23.7852 225.713 24.5367 225.982 25.1816L228.257 30.7216H225.098L223.366 26.3038C222.96 25.2527 222.619 24.8414 221.395 24.8414H220.476V30.7216H217.621V16.5136ZM220.476 22.5969H221.426C222.817 22.5969 224.417 22.3938 224.417 20.6267C224.417 18.9256 222.853 18.758 221.426 18.758H220.476V22.5969Z" fill="white"/>
<path fill-rule="evenodd" clip-rule="evenodd" d="M234.378 16.5134H237.608L243.185 30.7213H240.026L238.802 27.4918H233.057L231.797 30.7213H228.841L234.378 16.5134ZM235.942 19.3671H235.907L233.865 25.2474H238.014L235.942 19.3671Z" fill="white"/>
<path d="M54.4324 0H0V47.2348H54.4324V0Z" fill="#8A1002"/>
<path fill-rule="evenodd" clip-rule="evenodd" d="M44.3762 25.4479C43.8782 24.6859 43.2679 23.9141 42.5552 23.1422C41.4188 21.9093 40.0201 20.6679 38.3576 19.4167C36.705 18.1654 35.5686 17.1208 34.9485 16.2928C34.3284 15.4647 34.0183 14.5706 34.0183 13.6019C34.0183 12.5194 34.4603 11.6168 35.3427 10.8914C36.2153 10.1758 37.3152 9.81871 38.6298 9.81871C39.898 9.81871 41.0611 10.0816 42.1315 10.6088C43.1921 11.1445 44.2541 11.9922 45.3148 13.1675V5.54765C44.4786 5.01201 43.4559 4.58743 42.2157 4.28657C41.8313 4.19238 41.4357 4.11787 41.0414 4.05179C39.2064 3.86481 37.3587 3.86481 35.5237 4.05038L35.5111 4.05179C33.0798 4.45668 30.9852 5.41549 29.2203 6.94931C26.8255 9.0286 25.6246 11.6253 25.6246 14.7491C25.6246 16.6119 26.1507 18.3721 27.2113 20.0563C27.8693 21.0826 28.7517 22.1075 29.8404 23.1422C30.5264 23.7917 31.3051 24.4314 32.1594 25.0809C34.3761 26.7469 35.887 28.1106 36.6951 29.1833C37.5215 30.2743 37.9339 31.4229 37.9339 32.6277C37.9339 33.9352 37.4639 35.0177 36.5254 35.8837C35.577 36.7582 34.3943 37.1912 32.9577 37.1912C31.5113 37.1912 30.1785 36.8706 28.9678 36.2127C27.8033 35.5913 26.6585 34.6044 25.5404 33.2674V41.5199C27.165 42.1596 28.5637 42.5926 29.7562 42.8274C30.7986 43.0256 32.029 43.1381 33.4459 43.1662H34.6847C37.9522 43.072 40.6753 41.9529 42.8723 39.8357C44.9472 37.8309 46.0836 35.3846 46.2996 32.4871V30.6046C46.1411 28.8543 45.5028 27.1321 44.3762 25.4479Z" fill="white"/>
<path fill-rule="evenodd" clip-rule="evenodd" d="M27.0739 43.325H35.8156L35.4845 42.8765C35.0145 42.2382 34.5614 41.5255 34.1251 40.7171C33.6902 39.9101 33.1767 38.8163 32.6057 37.4667L24.341 18.4929V18.4915C23.9019 17.5172 23.5189 16.6006 23.2032 15.743C23.0447 15.3128 22.9226 14.9557 22.8385 14.6731C22.7543 14.392 22.7094 14.1811 22.7038 14.0728L22.6869 13.8085H17.3235L17.2997 14.063C17.2899 14.1769 17.2422 14.3892 17.158 14.6717C17.0738 14.9543 16.9532 15.3128 16.8002 15.7416C16.4734 16.602 16.1002 17.5187 15.6625 18.4901L15.6611 18.4929L7.38655 37.4639L7.38515 37.4653C6.71033 39.0441 6.17582 40.2461 5.76756 41.0629C5.48838 41.6126 5.23866 42.0653 5.00437 42.428L4.95947 42.4983V43.3236H12.2421L12.2154 43.0171C12.186 42.6853 12.172 42.3704 12.172 42.0709C12.172 41.6225 12.2042 41.2119 12.2688 40.8408C12.3768 40.2082 12.5858 39.5122 12.8987 38.777L14.3591 35.2032H24.8068L26.2111 38.7699V38.7713C26.6011 39.7484 26.8593 40.5624 26.9954 41.1993C27.0837 41.6365 27.1272 42.0625 27.1272 42.4815C27.1272 42.6614 27.1188 42.84 27.1034 43.0171L27.0739 43.325ZM22.8735 30.1069H16.5042L17.1987 28.4255L19.7688 22.2044L22.2085 28.4198L22.8735 30.1069Z" fill="#8A1002"/>
<path fill-rule="evenodd" clip-rule="evenodd" d="M35.2585 43.0439C34.7801 42.3944 34.3199 41.6703 33.878 40.8521C33.4361 40.0339 32.9198 38.9331 32.3474 37.5778L24.0841 18.6083C23.6422 17.6298 23.2578 16.7075 22.9379 15.8415C22.6181 14.9755 22.4399 14.392 22.4217 14.0912H17.5759C17.5479 14.392 17.3697 14.9755 17.0596 15.8415C16.7314 16.7075 16.3554 17.6298 15.9134 18.6083L7.64315 37.5764C6.96694 39.1566 6.43242 40.3615 6.01856 41.1895C5.73657 41.7448 5.48264 42.206 5.23853 42.5827V43.0439H11.9333C11.8576 42.1975 11.8772 41.444 11.9894 40.7945C12.1017 40.1351 12.3177 39.4209 12.6376 38.6674L14.1696 34.9235H24.996L26.4705 38.6688C26.8648 39.6571 27.1271 40.4852 27.2688 41.1431C27.4007 41.7926 27.4386 42.4225 27.381 43.0439H35.2585ZM16.0846 30.3881L16.939 28.3187L19.7659 21.4777H19.7841L22.4694 28.3187L23.2859 30.3881H16.0846Z" fill="white"/>
</svg>
